# xmcd CD database file
#
# Track frame offsets:
#	150
#	14268
#	28365
#	43513
#	53917
#	73232
#	86729
#	100046
#	116430
#	130116
#	147874
#	160779
#	172318
#	191623
#	208375
#	225220
#	245751
#	258783
#	272202
#	294748
#	307986
#
# Disc length: 4320 seconds
#
# Revision: 0
# Processed by: cddbd v1.5.2PL0 Copyright (c) Steve Scherf et al.
# Submitted via: ACXtractor (MTCDDB.DLL V2003.07.15)
#
DISCID=3610de15
DTITLE=Mac Davis - Best of
DYEAR=1993
DGENRE=Country
TTITLE0=Watching Scotty Grow
TTITLE1=I Don't Like Spiders and Snakes
TTITLE2=Lay lady Lay
TTITLE3=Put Another Log on the Fire
TTITLE4=The Beer Drinking Song
TTITLE5=Playground in my Mind
TTITLE6=Stop and Smell the Roses
TTITLE7=The Purple Bear
TTITLE8=Baby don't get Hooked on Me
TTITLE9=I'm Gonna Hire a Wino
TTITLE10=Hell of a Women
TTITLE11=Havin' my Baby
TTITLE12=Oh Lord It's hard to be Humble
TTITLE13=I got You
TTITLE14=Let's Keep it that Way
TTITLE15=It was Time
TTITLE16=Gravel on the Ground
TTITLE17=Hand me down that Bottle of Tekela
TTITLE18=I will always Love You
TTITLE19=Why don't we sleep on It
TTITLE20=I Want to wake Up
EXTD=ID3G:   2 YEAR: 1993
EXTT0=
EXTT1=
EXTT2=
EXTT3=
EXTT4=
EXTT5=
EXTT6=
EXTT7=
EXTT8=
EXTT9=
EXTT10=
EXTT11=
EXTT12=
EXTT13=
EXTT14=
EXTT15=
EXTT16=
EXTT17=
EXTT18=
EXTT19=
EXTT20=
PLAYORDER=
